<svg width="66" height="65" viewBox="0 0 66 65" fill="none" xmlns="http://www.w3.org/2000/svg">
<path d="M0.851454 46.4465L0.851456 18.6733C0.851456 18.6733 20.2863 23.4728 32.9678 23.4728C45.6493 23.4728 65.0842 18.6733 65.0842 18.6733L65.0842 46.4465C65.0842 46.4465 45.8365 39.071 32.9678 39.071C20.0991 39.071 0.851454 46.4465 0.851454 46.4465Z" fill="white"/>
<path d="M19.0812 0.443479L46.8544 0.443481C46.8544 0.443481 42.0549 19.8783 42.0549 32.5598C42.0549 45.2413 46.8544 64.6762 46.8544 64.6762L19.0812 64.6763C19.0812 64.6763 26.4566 45.4286 26.4566 32.5599C26.4566 19.6912 19.0812 0.443479 19.0812 0.443479Z" fill="white"/>
</svg>
