<svg width="97" height="112" viewBox="0 0 97 112" fill="none" xmlns="http://www.w3.org/2000/svg">
<path d="M94.6246 111.769L94.6246 71.0272L56.8169 71.0272L56.8169 62.8118L79.6189 52.5844C92.445 46.7162 96.8042 37.4949 96.8042 24.5849C96.8042 16.9563 95.463 9.57915 93.451 2.20203L63.1042 0.525407C63.6072 1.69904 64.0264 2.87267 64.4455 4.04631C65.1162 6.05824 65.8706 8.40551 65.9545 10.3336C66.3736 14.7767 66.206 17.8784 61.8468 20.4772L49.7751 27.6028C44.4937 17.4593 36.8651 12.7647 27.6437 12.7647C26.7216 12.7647 25.7995 12.7647 24.8773 12.8485C7.85963 14.1898 0.398683 33.3033 0.398682 56.9436L0.398682 111.769C28.482 110.847 66.5413 110.847 94.6246 111.769ZM34.5179 65.0752C34.5179 61.6381 36.949 59.3747 40.7214 59.3747C44.9967 59.3747 47.5955 61.722 47.5955 65.3267L47.5955 71.0272L34.5179 71.0272L34.5179 65.0752Z" fill="white"/>
</svg>
